# xmcd CD database file generated by OrangeCD 6.4
#
# Track frame offsets:
#	150
#	21458
#	39357
#	67530
#	76248
#	99819
#	120492
#	142138
#	156096
#	170797
#	187425
#
# Disc length: 2789 seconds
#
# Revision: 0
# Processed by: cddbd v1.5.2PL0 Copyright (c) Steve Scherf et al.
# Submitted via: OrangeCD 6.4
#
DISCID=8e0ae30b
DTITLE=Stone Crazy Blues Band - Microstoned
DYEAR=2008
DGENRE=
TTITLE0=I Can't Be Satisfied
TTITLE1=Trouble No More
TTITLE2=Time Will Tell
TTITLE3=Somewhere Over The Rainbow
TTITLE4=Are You Glad To Be In America
TTITLE5=Hideaway
TTITLE6=Harlem Nocturne
TTITLE7=Opening To G
TTITLE8=Frankentire
TTITLE9=Stranger Blues
TTITLE10=Come On In My Kitchen
EXTD=
EXTT0=
EXTT1=
EXTT2=
EXTT3=
EXTT4=
EXTT5=
EXTT6=
EXTT7=
EXTT8=
EXTT9=
EXTT10=
PLAYORDER=
